<?xml version="1.0" encoding="iso-8859-1"?>
<!DOCTYPE svg PUBLIC "-//W3C//DTD SVG 1.1//EN" "http://www.w3.org/Graphics/SVG/1.1/DTD/svg11.dtd">
<svg xmlns="http://www.w3.org/2000/svg" viewBox="0 0 32 32">
	<path d="M25.5 21a4.49 4.49 0 0 0-3.22 1.37h-.06l-11.38-5.7A4.67 4.67 0 0 0 11 15.5a4.5 4.5 0 0 0-.28-1.5l10.81-5.43A4.46 4.46 0 1 0 21 6.5v.1L9.78 12.22a1.25 1.25 0 0 0-.12.08 4.51 4.51 0 1 0 .25 6.11l11.34 5.67A4.46 4.46 0 0 0 21 25.5a4.5 4.5 0 1 0 4.5-4.5zm0-17A2.5 2.5 0 1 1 23 6.5 2.5 2.5 0 0 1 25.5 4zm-19 14A2.5 2.5 0 1 1 9 15.5 2.5 2.5 0 0 1 6.5 18zm19 10a2.5 2.5 0 1 1 2.5-2.5 2.5 2.5 0 0 1-2.5 2.5z" style="fill:#231f20"/>
</svg>